<svg xmlns="http://www.w3.org/2000/svg" viewBox="-225 3018.505 80 80">
  <defs>
    <style>
      .cls-1, .cls-4 {
        fill: none;
      }

      .cls-1 {
        stroke: #21a8ff;
        stroke-width: 3px;
      }

      .cls-2 {
        fill: #21a8ff;
      }

      .cls-3 {
        stroke: none;
      }
    </style>
  </defs>
  <g id="Group_219" data-name="Group 219" transform="translate(-667 -22)">
    <g id="Group_102" data-name="Group 102" transform="translate(442 3040.505)">
      <g id="Ellipse_4" data-name="Ellipse 4" class="cls-1" transform="translate(0 0)">
        <circle class="cls-3" cx="40" cy="40" r="40"/>
        <circle class="cls-4" cx="40" cy="40" r="38.5"/>
      </g>
    </g>
    <g id="Group_117" data-name="Group 117" transform="translate(456.802 3063.271)">
      <path id="Path_151" data-name="Path 151" class="cls-2" d="M48.994,26.9h0c-2.064-1.72-9.977-3.784-10.321-5.734C42,20.59,44.407,19.1,44.407,17.379c0-2.294-.229-14.679-9.4-14.679s-9.4,12.385-9.4,14.679c0,1.72,2.523,3.211,5.963,3.784-.115.573-1.032,1.261-2.179,1.835a11.871,11.871,0,0,1,3.44,1.835l.344.344a5.713,5.713,0,0,1,1.376,3.555h0a16.273,16.273,0,0,1-1.261,5.5H48.421c.917,0,1.72-4.816,1.605-5.161A3.875,3.875,0,0,0,48.994,26.9Z" transform="translate(3.758 0.396)"/>
      <path id="Path_152" data-name="Path 152" class="cls-2" d="M34.748,29.128a3.2,3.2,0,0,0-.917-2.294h0c-2.294-1.95-11.927-4.128-11.812-6.307,0-1.95,2.064-2.982,2.408-6.537.688,0,1.605-1.72,1.835-3.211S25.917,8.6,25.229,8.372C25.459,4.472,24.2,0,17.431,0,10.55,0,9.4,4.472,9.518,8.372c-.688.115-1.261.917-1.032,2.408s1.147,3.211,1.835,3.211c.344,3.555,2.408,4.587,2.408,6.537,0,2.179-9.633,4.358-11.812,6.307h0A3.2,3.2,0,0,0,0,29.128c0,.344.8,5.5,1.72,5.5H33.027C34.059,34.633,34.862,29.587,34.748,29.128Z" transform="translate(0 0)"/>
    </g>
  </g>
</svg>
