<svg xmlns="http://www.w3.org/2000/svg" xmlns:xlink="http://www.w3.org/1999/xlink" viewBox="361.126 665.39 170 50.088">
  <defs>
    <style>
      .cls-1 {
        fill: #a6a6a6;
      }

      .cls-10, .cls-2, .cls-3 {
        fill: #fff;
      }

      .cls-2 {
        stroke: #fff;
        stroke-miterlimit: 10;
        stroke-width: 0.2px;
      }

      .cls-4 {
        fill: url(#linear-gradient);
      }

      .cls-5 {
        fill: url(#linear-gradient-2);
      }

      .cls-6 {
        fill: url(#linear-gradient-3);
      }

      .cls-7 {
        fill: url(#linear-gradient-4);
      }

      .cls-8 {
        opacity: 0.2;
      }

      .cls-9 {
        opacity: 0.12;
      }

      .cls-10 {
        opacity: 0.25;
      }
    </style>
    <linearGradient id="linear-gradient" x1="0.915" y1="6.632" x2="-0.376" y2="5.96" gradientUnits="objectBoundingBox">
      <stop offset="0" stop-color="#00a0ff"/>
      <stop offset="0.007" stop-color="#00a1ff"/>
      <stop offset="0.26" stop-color="#00beff"/>
      <stop offset="0.512" stop-color="#00d2ff"/>
      <stop offset="0.76" stop-color="#00dfff"/>
      <stop offset="1" stop-color="#00e3ff"/>
    </linearGradient>
    <linearGradient id="linear-gradient-2" x1="1.077" y1="17.2" x2="-1.307" y2="17.2" gradientUnits="objectBoundingBox">
      <stop offset="0" stop-color="#ffe000"/>
      <stop offset="0.409" stop-color="#ffbd00"/>
      <stop offset="0.775" stop-color="orange"/>
      <stop offset="1" stop-color="#ff9c00"/>
    </linearGradient>
    <linearGradient id="linear-gradient-3" x1="0.864" y1="10.839" x2="-0.499" y2="9.074" gradientUnits="objectBoundingBox">
      <stop offset="0" stop-color="#ff3a44"/>
      <stop offset="1" stop-color="#c31162"/>
    </linearGradient>
    <linearGradient id="linear-gradient-4" x1="-0.186" y1="13.614" x2="0.423" y2="12.822" gradientUnits="objectBoundingBox">
      <stop offset="0" stop-color="#32a071"/>
      <stop offset="0.068" stop-color="#2da771"/>
      <stop offset="0.476" stop-color="#15cf74"/>
      <stop offset="0.801" stop-color="#06e775"/>
      <stop offset="1" stop-color="#00f076"/>
    </linearGradient>
  </defs>
  <g id="Group_223" data-name="Group 223" transform="translate(-667 -22)">
    <g id="Group_222" data-name="Group 222">
      <path id="Path_28" data-name="Path 28" d="M173.7,60H16.3A6.212,6.212,0,0,1,10,53.75V16.25A6.212,6.212,0,0,1,16.3,10H173.7a6.212,6.212,0,0,1,6.3,6.25v37.5A6.291,6.291,0,0,1,173.7,60Z" transform="translate(1018.126 677.39)"/>
      <g id="Group_15" data-name="Group 15" transform="translate(1028.126 687.39)">
        <path id="Path_29" data-name="Path 29" class="cls-1" d="M172.786,11a5.291,5.291,0,0,1,5.259,5.259V53.827a5.291,5.291,0,0,1-5.259,5.259H16.261A5.291,5.291,0,0,1,11,53.827V16.261A5.291,5.291,0,0,1,16.261,11H172.786m0-1H16.261A6.2,6.2,0,0,0,10,16.261V53.827a6.2,6.2,0,0,0,6.261,6.261H172.786a6.2,6.2,0,0,0,6.261-6.261V16.261A6.279,6.279,0,0,0,172.786,10Z" transform="translate(-10 -10)"/>
      </g>
      <path id="Path_30" data-name="Path 30" class="cls-2" d="M58.913,21.032a3.411,3.411,0,0,1-.877,2.5A3.882,3.882,0,0,1,51.4,20.782,3.848,3.848,0,0,1,55.282,16.9a3.334,3.334,0,0,1,1.5.376,2.727,2.727,0,0,1,1.127.877l-.626.626a2.335,2.335,0,0,0-2-.877,2.491,2.491,0,0,0-2,.877,2.58,2.58,0,0,0-.877,2.129,2.58,2.58,0,0,0,.877,2.129,3.224,3.224,0,0,0,2,.877,2.746,2.746,0,0,0,2.129-.877,2.074,2.074,0,0,0,.626-1.5H55.282v-.877h3.631Z" transform="translate(1028.567 679.13)"/>
      <path id="Path_31" data-name="Path 31" class="cls-2" d="M62.883,17.877H59.5v2.379h3.131v.877H59.5v2.379h3.381v1H58.5V17h4.383Z" transform="translate(1030.358 679.155)"/>
      <path id="Path_32" data-name="Path 32" class="cls-2" d="M65.931,24.513h-1V17.877H62.8V17h5.259v.877H65.931Z" transform="translate(1031.442 679.155)"/>
      <path id="Path_33" data-name="Path 33" class="cls-2" d="M69.9,24.513V17h1v7.513Z" transform="translate(1033.233 679.155)"/>
      <path id="Path_34" data-name="Path 34" class="cls-2" d="M74.73,24.513h-1V17.877H71.6V17h5.134v.877H74.605v6.637Z" transform="translate(1033.662 679.155)"/>
      <path id="Path_35" data-name="Path 35" class="cls-2" d="M84.937,23.537A3.882,3.882,0,0,1,78.3,20.782a3.882,3.882,0,1,1,6.637,2.755Zm-4.758-.626a2.955,2.955,0,0,0,2,.877,2.492,2.492,0,0,0,2-.877,3.021,3.021,0,0,0,.877-2.129,2.58,2.58,0,0,0-.877-2.129,2.955,2.955,0,0,0-2-.877,2.492,2.492,0,0,0-2,.877,3.021,3.021,0,0,0-.877,2.129A2.58,2.58,0,0,0,80.178,22.911Z" transform="translate(1035.351 679.13)"/>
      <path id="Path_36" data-name="Path 36" class="cls-2" d="M85.6,24.513V17h1.127l3.631,5.885h0V17h1v7.513h-1l-3.882-6.136h0v6.136Z" transform="translate(1037.193 679.155)"/>
      <path id="Path_37" data-name="Path 37" class="cls-3" d="M84.909,32.985a5.268,5.268,0,0,0-5.384,5.384,5.345,5.345,0,0,0,5.384,5.384,5.268,5.268,0,0,0,5.384-5.384A5.2,5.2,0,0,0,84.909,32.985Zm0,8.515a3.266,3.266,0,0,1,0-6.511,3.033,3.033,0,0,1,3.005,3.256A3.108,3.108,0,0,1,84.909,41.5ZM73.264,32.985a5.268,5.268,0,0,0-5.384,5.384,5.345,5.345,0,0,0,5.384,5.384,5.268,5.268,0,0,0,5.384-5.384A5.2,5.2,0,0,0,73.264,32.985Zm0,8.515a3.266,3.266,0,0,1,0-6.511,3.033,3.033,0,0,1,3.005,3.256A3.108,3.108,0,0,1,73.264,41.5Zm-13.9-6.887v2.254h5.384a4.735,4.735,0,0,1-1.252,2.88,5.542,5.542,0,0,1-4.132,1.628,5.83,5.83,0,0,1-5.885-6.011,5.907,5.907,0,0,1,5.885-6.011A6.209,6.209,0,0,1,63.5,30.982l1.628-1.628A8.024,8.024,0,0,0,59.49,27.1a8.447,8.447,0,0,0-8.39,8.265,8.447,8.447,0,0,0,8.39,8.265,7.206,7.206,0,0,0,5.76-2.379,7.538,7.538,0,0,0,2-5.259,4.7,4.7,0,0,0-.125-1.377H59.365Zm56.85,1.753a4.865,4.865,0,0,0-4.508-3.381A5.043,5.043,0,0,0,106.7,38.37a5.24,5.24,0,0,0,5.259,5.384,5.137,5.137,0,0,0,4.383-2.379l-1.753-1.252a3.052,3.052,0,0,1-2.63,1.5A2.717,2.717,0,0,1,109.327,40l7.138-3.005Zm-7.263,1.753a3.042,3.042,0,0,1,2.755-3.131,2.215,2.215,0,0,1,2,1.127Zm-5.885,5.134h2.379V27.6h-2.379ZM99.31,34.112h0a4.123,4.123,0,0,0-2.88-1.252A5.38,5.38,0,0,0,91.3,38.245,5.185,5.185,0,0,0,96.43,43.5a3.6,3.6,0,0,0,2.755-1.252h.125V43c0,2-1.127,3.131-2.88,3.131a2.782,2.782,0,0,1-2.63-1.878l-2,.877a5.166,5.166,0,0,0,4.758,3.131c2.755,0,5.009-1.628,5.009-5.51V33.236H99.31v.877ZM96.555,41.5a3.266,3.266,0,0,1,0-6.511,3.013,3.013,0,0,1,2.88,3.256A3.013,3.013,0,0,1,96.555,41.5Zm30.554-13.9h-5.635V43.253h2.379V37.368h3.256a4.89,4.89,0,1,0,0-9.767Zm.125,7.513h-3.381V29.73h3.381a2.75,2.75,0,0,1,2.755,2.63A2.866,2.866,0,0,1,127.234,35.114Zm14.4-2.254a4.209,4.209,0,0,0-4.132,2.379l2.129.877a2.212,2.212,0,0,1,2.129-1.127,2.353,2.353,0,0,1,2.5,2v.125a4.967,4.967,0,0,0-2.379-.626c-2.254,0-4.508,1.252-4.508,3.506a3.668,3.668,0,0,0,3.882,3.506,3.524,3.524,0,0,0,3.005-1.5h.125v1.252h2.254V37.243A4.739,4.739,0,0,0,141.634,32.86Zm-.25,8.64c-.751,0-1.878-.376-1.878-1.377,0-1.252,1.377-1.628,2.5-1.628a4.843,4.843,0,0,1,2.129.5A2.916,2.916,0,0,1,141.384,41.5Zm13.148-8.265L151.9,40h-.125l-2.755-6.762h-2.5l4.132,9.517-2.379,5.259h2.379l6.386-14.776ZM133.495,43.253h2.379V27.6h-2.379Z" transform="translate(1028.492 681.703)"/>
    </g>
    <path id="Path_38" data-name="Path 38" class="cls-4" d="M20.526,17.5a2.477,2.477,0,0,0-.626,1.753V46.927a2.477,2.477,0,0,0,.626,1.753l.125.125L36.179,33.278v-.25L20.526,17.5Z" transform="translate(1020.623 679.281)"/>
    <path id="Path_39" data-name="Path 39" class="cls-5" d="M38.034,36.444,32.9,31.31v-.376L38.034,25.8l.125.125L44.3,29.431c1.753,1,1.753,2.63,0,3.631l-6.261,3.381Z" transform="translate(1023.902 681.375)"/>
    <path id="Path_40" data-name="Path 40" class="cls-6" d="M41.312,35.259,36.053,30,20.4,45.653c.626.626,1.5.626,2.63.125L41.312,35.259" transform="translate(1020.749 682.434)"/>
    <path id="Path_41" data-name="Path 41" class="cls-7" d="M41.312,27.976,23.03,17.583a2.03,2.03,0,0,0-2.63.125L36.053,33.235Z" transform="translate(1020.749 679.199)"/>
    <g id="Group_18" data-name="Group 18" transform="translate(1040.648 717.568)">
      <path id="Path_42" data-name="Path 42" class="cls-8" d="M41.187,34.1,23.03,44.368a2.048,2.048,0,0,1-2.5,0h0l-.125.125h0l.125.125h0a2.048,2.048,0,0,0,2.5,0L41.187,34.1Z" transform="translate(-19.899 -34.1)"/>
      <path id="Path_43" data-name="Path 43" class="cls-9" d="M20.5,42.653A2.448,2.448,0,0,1,20,40.9v.125a2.477,2.477,0,0,0,.626,1.753v-.125Z" transform="translate(-20 -32.385)"/>
    </g>
    <path id="Path_44" data-name="Path 44" class="cls-9" d="M43.261,31.628,37,35.134l.125.125,6.136-3.506A2.082,2.082,0,0,0,44.513,30h0C44.513,30.626,44.012,31.127,43.261,31.628Z" transform="translate(1024.936 682.434)"/>
    <path id="Path_45" data-name="Path 45" class="cls-10" d="M23.131,17.709l24.418,13.9c.751.5,1.252,1,1.252,1.628h0a2.082,2.082,0,0,0-1.252-1.753l-24.418-13.9c-1.753-1-3.131-.125-3.131,1.878v.125C20,17.584,21.377,16.707,23.131,17.709Z" transform="translate(1020.648 679.198)"/>
  </g>
</svg>
