<svg xmlns="http://www.w3.org/2000/svg" viewBox="-484 3018.505 80 80">
  <defs>
    <style>
      .cls-1, .cls-4 {
        fill: none;
      }

      .cls-1 {
        stroke: #21a8ff;
        stroke-width: 3px;
      }

      .cls-2 {
        fill: #21a8ff;
      }

      .cls-3 {
        stroke: none;
      }
    </style>
  </defs>
  <g id="Group_218" data-name="Group 218" transform="translate(-667 -22)">
    <g id="Group_104" data-name="Group 104" transform="translate(183 3040.505)">
      <g id="Ellipse_6" data-name="Ellipse 6" class="cls-1" transform="translate(0 0)">
        <circle class="cls-3" cx="40" cy="40" r="40"/>
        <circle class="cls-4" cx="40" cy="40" r="38.5"/>
      </g>
    </g>
    <path id="Path_150" data-name="Path 150" class="cls-2" d="M17.291,48.93A17.318,17.318,0,0,1,0,31.639c0-4.415,2.722-10.816,8.02-18.984a121.148,121.148,0,0,1,7.873-10.89L17.365,0l1.4,1.766c.147.221,3.973,5,7.873,10.963,5.224,8.314,7.947,14.642,7.947,18.91A17.318,17.318,0,0,1,17.291,48.93Zm0-43.044V45.251A13.629,13.629,0,0,0,30.9,31.639C30.9,25.164,22.074,12.214,17.291,5.886Z" transform="translate(206.789 3055.696)"/>
  </g>
</svg>
