<svg xmlns="http://www.w3.org/2000/svg" viewBox="34 2766.505 80 80">
  <defs>
    <style>
      .cls-1, .cls-4 {
        fill: none;
      }

      .cls-1 {
        stroke: #21a8ff;
        stroke-width: 3px;
      }

      .cls-2 {
        fill: #21a8ff;
      }

      .cls-3 {
        stroke: none;
      }
    </style>
  </defs>
  <g id="Group_216" data-name="Group 216" transform="translate(-667 -22)">
    <g id="Group_101" data-name="Group 101" transform="translate(701 2788.505)">
      <g id="Ellipse_3" data-name="Ellipse 3" class="cls-1" transform="translate(0 0)">
        <circle class="cls-3" cx="40" cy="40" r="40"/>
        <circle class="cls-4" cx="40" cy="40" r="38.5"/>
      </g>
    </g>
    <path id="Megaphone_1_" class="cls-2" d="M22.654,28.837A2.323,2.323,0,0,1,20.389,31.1H11.327a2.323,2.323,0,0,1-2.265-2.265V24.306a1.535,1.535,0,0,1,2.114-1.586l2.416.831v1.888a1.161,1.161,0,0,0,1.133,1.133h2.265a1.161,1.161,0,0,0,1.133-1.133v-.378l2.416.831A3.383,3.383,0,0,1,22.654,28.837ZM45.308,1.652A1.571,1.571,0,0,0,43.119.066L11.252,10.034a3.256,3.256,0,0,0-2.19,2.945V17.51a3.256,3.256,0,0,0,2.19,2.945l31.942,9.968a1.6,1.6,0,0,0,2.19-1.586V1.652ZM6.8,10.714A2.225,2.225,0,0,0,4.531,8.448H2.265A2.272,2.272,0,0,0,0,10.714v9.062a2.272,2.272,0,0,0,2.265,2.265H4.531A2.225,2.225,0,0,0,6.8,19.775Z" transform="translate(715.48 2812.978)"/>
  </g>
</svg>
