<svg xmlns="http://www.w3.org/2000/svg" viewBox="-484 2766.505 80 80">
  <defs>
    <style>
      .cls-1, .cls-4 {
        fill: none;
      }

      .cls-1 {
        stroke: #21a8ff;
        stroke-width: 3px;
      }

      .cls-2 {
        fill: #21a8ff;
      }

      .cls-3 {
        stroke: none;
      }
    </style>
  </defs>
  <g id="Group_221" data-name="Group 221" transform="translate(-667 -22)">
    <g id="Group_217" data-name="Group 217" transform="translate(183 2788.505)">
      <g id="Group_115" data-name="Group 115">
        <g id="Group_99" data-name="Group 99" transform="translate(0)">
          <g id="Ellipse_1" data-name="Ellipse 1" class="cls-1" transform="translate(0 0)">
            <circle class="cls-3" cx="40" cy="40" r="40"/>
            <circle class="cls-4" cx="40" cy="40" r="38.5"/>
          </g>
        </g>
        <g id="Group_114" data-name="Group 114" transform="translate(18.174 18.195)">
          <path id="Path_146" data-name="Path 146" class="cls-2" d="M41.967,36.383V28.93a9.408,9.408,0,0,0-.932-4.286,4.1,4.1,0,0,0-3.727-2.236H36.47a4.213,4.213,0,0,0-2.888-.932h-2.7a4.213,4.213,0,0,0-2.888-.932H26.128V11.227a4.205,4.205,0,0,0-.466-2.236A3.566,3.566,0,0,0,22.4,7.5,3.474,3.474,0,0,0,19.14,8.991a4.371,4.371,0,0,0-.466,2.236V29.861a5.15,5.15,0,0,1-.093.839c-.186,0-.745-.28-2.05-1.491-2.329-2.236-4.845-3.168-6.8-2.329A3.988,3.988,0,0,0,7.4,30.793a.846.846,0,0,0,.28.652,39.021,39.021,0,0,1,7.267,9.969A13.983,13.983,0,0,0,21.1,47.75a15.54,15.54,0,0,0,7.733,1.584C37.308,49.428,41.967,44.769,41.967,36.383Z" transform="translate(-0.505 -0.512)"/>
          <path id="Path_147" data-name="Path 147" class="cls-2" d="M43.791,7.733,42.859,2.05h0a1.933,1.933,0,0,0-.559-.932A2.184,2.184,0,0,0,41.275.932a1.315,1.315,0,0,0-1.118,1.584l.28,1.77A37.285,37.285,0,0,0,22.827,0C15.187,0,8.013,1.863,3.447,5.124l.28-1.677A1.428,1.428,0,0,0,2.516,1.863a1.051,1.051,0,0,0-1.025.28,1.584,1.584,0,0,0-.559.932L0,8.665v.559c0,.093,0,.186.093.186,0,.093.093.186.093.28a.289.289,0,0,0,.093.186l.186.186c.093.093.093.093.186.093l.093.093H6.988a1.4,1.4,0,1,0,0-2.8H4.938C9.038,4.565,15.746,2.8,22.827,2.8A33.466,33.466,0,0,1,38.48,6.522H36.8a1.4,1.4,0,0,0,0,2.8h5.59a1.182,1.182,0,0,0,.559-.093.289.289,0,0,0,.186-.093.325.325,0,0,1,.186-.093l.093-.093.093-.093.093-.093c.093-.093.093-.186.186-.28a.325.325,0,0,1,.093-.186v-.28Z" transform="translate(0 0)"/>
        </g>
      </g>
    </g>
  </g>
</svg>
