<svg xmlns="http://www.w3.org/2000/svg" viewBox="147 665.39 170 50">
  <defs>
    <style>
      .cls-1 {
        fill: #a6a6a6;
      }

      .cls-2 {
        fill: #fff;
      }
    </style>
  </defs>
  <g id="Group_224" data-name="Group 224" transform="translate(-667 -22)">
    <path id="Path_3" data-name="Path 3" class="cls-1" d="M163.952,50h-158A5.947,5.947,0,0,1,0,44.084V5.908A5.939,5.939,0,0,1,5.955,0h158A6.02,6.02,0,0,1,170,5.908V44.084A6.029,6.029,0,0,1,163.952,50Z" transform="translate(814 687.39)"/>
    <path id="Path_4" data-name="Path 4" d="M168.55,43.863a4.805,4.805,0,0,1-4.828,4.787h-158A4.811,4.811,0,0,1,.89,43.863V5.684A4.818,4.818,0,0,1,5.724.89h158a4.811,4.811,0,0,1,4.828,4.794V43.863Z" transform="translate(814.231 687.612)"/>
    <g id="Group_9" data-name="Group 9" transform="translate(830.108 695.161)">
      <path id="Path_5" data-name="Path 5" class="cls-2" d="M34.623,21.637a7.242,7.242,0,0,1,3.477-6.08,7.5,7.5,0,0,0-5.888-3.16c-2.477-.259-4.88,1.471-6.141,1.471-1.287,0-3.23-1.446-5.324-1.4a7.847,7.847,0,0,0-6.6,3.995c-2.853,4.9-.725,12.11,2.009,16.074,1.368,1.941,2.966,4.109,5.057,4.033,2.046-.084,2.811-1.295,5.28-1.295,2.447,0,3.165,1.295,5.3,1.246,2.2-.035,3.579-1.95,4.9-3.909a15.987,15.987,0,0,0,2.24-4.529A7.013,7.013,0,0,1,34.623,21.637Z" transform="translate(-12.792 -4.679)"/>
      <path id="Path_6" data-name="Path 6" class="cls-2" d="M27.919,11.328a7.1,7.1,0,0,0,1.645-5.111,7.337,7.337,0,0,0-4.732,2.43,6.757,6.757,0,0,0-1.687,4.922A6.063,6.063,0,0,0,27.919,11.328Z" transform="translate(-10.118 -6.217)"/>
    </g>
    <path id="Path_7" data-name="Path 7" class="cls-2" d="M56.558,34.831H53.7l-1.567-4.886H46.686l-1.492,4.886H42.41L47.8,18.2h3.332Zm-4.9-6.936-1.417-4.344q-.225-.666-.845-3.134h-.05q-.247,1.061-.8,3.134L47.16,27.895Z" transform="translate(824.995 691.939)"/>
    <path id="Path_8" data-name="Path 8" class="cls-2" d="M67.058,27.807a6.786,6.786,0,0,1-1.666,4.836,4.888,4.888,0,0,1-3.7,1.58,3.713,3.713,0,0,1-3.431-1.7h-.05V38.84H55.52V25.906q0-1.924-.1-3.949h2.361l.15,1.9h.05a4.8,4.8,0,0,1,7.645-.47A6.577,6.577,0,0,1,67.058,27.807Zm-2.735.1a4.911,4.911,0,0,0-.8-2.888,2.755,2.755,0,0,0-2.337-1.185,2.8,2.8,0,0,0-1.8.654A3.029,3.029,0,0,0,58.331,26.2a3.465,3.465,0,0,0-.125.812v2a3.191,3.191,0,0,0,.808,2.21,2.689,2.689,0,0,0,2.1.9,2.755,2.755,0,0,0,2.361-1.16A5.078,5.078,0,0,0,64.323,27.9Z" transform="translate(828.368 692.818)"/>
    <path id="Path_9" data-name="Path 9" class="cls-2" d="M78.095,27.807a6.781,6.781,0,0,1-1.667,4.836,4.884,4.884,0,0,1-3.7,1.58,3.709,3.709,0,0,1-3.43-1.7h-.05V38.84H66.558V25.906q0-1.924-.1-3.949H68.82l.15,1.9h.05a4.8,4.8,0,0,1,7.646-.47A6.6,6.6,0,0,1,78.095,27.807Zm-2.735.1a4.912,4.912,0,0,0-.8-2.888,2.751,2.751,0,0,0-2.336-1.185,2.808,2.808,0,0,0-1.8.654A3.027,3.027,0,0,0,69.368,26.2a3.533,3.533,0,0,0-.125.812v2a3.2,3.2,0,0,0,.806,2.21,2.694,2.694,0,0,0,2.1.9,2.755,2.755,0,0,0,2.361-1.16A5.078,5.078,0,0,0,75.359,27.9Z" transform="translate(831.23 692.818)"/>
    <path id="Path_10" data-name="Path 10" class="cls-2" d="M90.179,30.215a4.418,4.418,0,0,1-1.488,3.455,6.629,6.629,0,0,1-4.565,1.456,8.037,8.037,0,0,1-4.343-1.036l.622-2.221a7.4,7.4,0,0,0,3.881,1.062,3.688,3.688,0,0,0,2.364-.68,2.214,2.214,0,0,0,.844-1.817,2.308,2.308,0,0,0-.7-1.705,6.486,6.486,0,0,0-2.312-1.286q-4.4-1.629-4.4-4.77a4.208,4.208,0,0,1,1.543-3.361A6.111,6.111,0,0,1,85.73,18a8.184,8.184,0,0,1,3.8.79l-.671,2.173a6.638,6.638,0,0,0-3.207-.765,3.262,3.262,0,0,0-2.211.691,1.969,1.969,0,0,0-.671,1.506,2.027,2.027,0,0,0,.769,1.629,8.716,8.716,0,0,0,2.438,1.284,8.277,8.277,0,0,1,3.182,2.023A4.206,4.206,0,0,1,90.179,30.215Z" transform="translate(834.685 691.89)"/>
    <path id="Path_11" data-name="Path 11" class="cls-2" d="M96.6,24.506H93.644V30.33q0,2.222,1.567,2.221a4.809,4.809,0,0,0,1.193-.124l.074,2.024a6.124,6.124,0,0,1-2.088.3,3.234,3.234,0,0,1-2.487-.963,4.7,4.7,0,0,1-.9-3.234V24.5H89.244v-2h1.763v-2.2l2.637-.79V22.5H96.6v2Z" transform="translate(837.137 692.269)"/>
    <path id="Path_12" data-name="Path 12" class="cls-2" d="M108.128,27.856a6.55,6.55,0,0,1-1.592,4.541,5.7,5.7,0,0,1-4.428,1.826,5.423,5.423,0,0,1-4.237-1.751,6.35,6.35,0,0,1-1.579-4.417,6.487,6.487,0,0,1,1.628-4.565,5.656,5.656,0,0,1,4.387-1.777,5.539,5.539,0,0,1,4.276,1.752A6.277,6.277,0,0,1,108.128,27.856Zm-2.785.086a5.364,5.364,0,0,0-.72-2.846,2.655,2.655,0,0,0-2.41-1.435A2.7,2.7,0,0,0,99.75,25.1a5.467,5.467,0,0,0-.72,2.9,5.357,5.357,0,0,0,.72,2.845,2.754,2.754,0,0,0,4.848-.025A5.384,5.384,0,0,0,105.342,27.942Z" transform="translate(838.965 692.818)"/>
    <path id="Path_13" data-name="Path 13" class="cls-2" d="M113.952,24.3a4.7,4.7,0,0,0-.846-.074,2.543,2.543,0,0,0-2.189,1.063,3.972,3.972,0,0,0-.671,2.369v6.294h-2.683l.025-8.218q0-2.074-.1-3.776h2.338l.1,2.3H110a4.1,4.1,0,0,1,1.342-1.9,3.262,3.262,0,0,1,1.941-.642,4.342,4.342,0,0,1,.671.049Z" transform="translate(841.867 692.818)"/>
    <path id="Path_14" data-name="Path 14" class="cls-2" d="M124.367,27.392a6.205,6.205,0,0,1-.1,1.209h-8.054a3.468,3.468,0,0,0,1.169,2.716,4.009,4.009,0,0,0,2.634.839,8.967,8.967,0,0,0,3.259-.568l.421,1.85a10.141,10.141,0,0,1-4.051.741,5.893,5.893,0,0,1-4.415-1.641,6.036,6.036,0,0,1-1.6-4.4,6.839,6.839,0,0,1,1.493-4.516,5.161,5.161,0,0,1,4.225-1.924,4.514,4.514,0,0,1,3.955,1.924A6.452,6.452,0,0,1,124.367,27.392Zm-2.56-.691a3.6,3.6,0,0,0-.521-2.049,2.35,2.35,0,0,0-2.139-1.111,2.553,2.553,0,0,0-2.137,1.086,3.96,3.96,0,0,0-.795,2.072h5.592Z" transform="translate(843.459 692.813)"/>
    <g id="Group_12" data-name="Group 12" transform="translate(868.999 695.585)">
      <path id="Path_15" data-name="Path 15" class="cls-2" d="M50.443,10.8a4.089,4.089,0,0,1-1.332,3.322,5.326,5.326,0,0,1-3.5,1.03,16.368,16.368,0,0,1-1.93-.1V7.016a14.349,14.349,0,0,1,2.273-.17,4.925,4.925,0,0,1,3.261.934A3.76,3.76,0,0,1,50.443,10.8Zm-1.391.036a2.974,2.974,0,0,0-.763-2.2,3.021,3.021,0,0,0-2.23-.764A5.626,5.626,0,0,0,45,7.962v6.111a7.019,7.019,0,0,0,.892.036,3.135,3.135,0,0,0,2.338-.836A3.334,3.334,0,0,0,49.052,10.836Z" transform="translate(-43.676 -6.484)"/>
      <path id="Path_16" data-name="Path 16" class="cls-2" d="M56.106,11.641a3.218,3.218,0,0,1-.782,2.231,2.8,2.8,0,0,1-2.175.9,2.662,2.662,0,0,1-2.083-.861,3.123,3.123,0,0,1-.774-2.17,3.187,3.187,0,0,1,.8-2.243,2.784,2.784,0,0,1,2.156-.873,2.725,2.725,0,0,1,2.1.86A3.1,3.1,0,0,1,56.106,11.641Zm-1.369.043a2.65,2.65,0,0,0-.354-1.4A1.3,1.3,0,0,0,53.2,9.579a1.325,1.325,0,0,0-1.21.705,2.685,2.685,0,0,0-.354,1.422,2.65,2.65,0,0,0,.354,1.4,1.333,1.333,0,0,0,1.2.7,1.318,1.318,0,0,0,1.184-.717A2.633,2.633,0,0,0,54.737,11.683Z" transform="translate(-41.961 -6.039)"/>
      <path id="Path_17" data-name="Path 17" class="cls-2" d="M64.536,8.719l-1.857,5.893H61.469L60.7,12.053a19.035,19.035,0,0,1-.477-1.9H60.2a13.853,13.853,0,0,1-.477,1.9L58.9,14.612H57.682L55.935,8.719h1.356l.671,2.8q.244.994.4,1.891h.024q.147-.739.49-1.879l.842-2.813H60.8l.807,2.752q.293,1.007.476,1.94h.037a18.416,18.416,0,0,1,.4-1.94l.72-2.752h1.3Z" transform="translate(-40.498 -6.015)"/>
      <path id="Path_18" data-name="Path 18" class="cls-2" d="M69.269,14.636H67.95V11.261q0-1.56-1.2-1.56a1.2,1.2,0,0,0-.953.429,1.515,1.515,0,0,0-.366,1.01v3.495h-1.32V10.427q0-.776-.048-1.686h1.16l.062.921h.037a1.9,1.9,0,0,1,.684-.711,2.243,2.243,0,0,1,1.2-.331,1.9,1.9,0,0,1,1.381.534,2.582,2.582,0,0,1,.684,1.953Z" transform="translate(-38.39 -6.04)"/>
      <path id="Path_19" data-name="Path 19" class="cls-2" d="M71.359,15.152H70.041v-8.6h1.318Z" transform="translate(-36.841 -6.556)"/>
      <path id="Path_20" data-name="Path 20" class="cls-2" d="M78.455,11.641a3.218,3.218,0,0,1-.782,2.231,2.8,2.8,0,0,1-2.175.9,2.659,2.659,0,0,1-2.083-.861,3.123,3.123,0,0,1-.774-2.17,3.187,3.187,0,0,1,.8-2.243A2.783,2.783,0,0,1,75.6,8.623a2.727,2.727,0,0,1,2.1.86A3.1,3.1,0,0,1,78.455,11.641Zm-1.37.043a2.65,2.65,0,0,0-.354-1.4,1.3,1.3,0,0,0-1.182-.705,1.323,1.323,0,0,0-1.21.705,2.685,2.685,0,0,0-.354,1.422,2.65,2.65,0,0,0,.354,1.4,1.333,1.333,0,0,0,1.2.7,1.316,1.316,0,0,0,1.182-.717A2.622,2.622,0,0,0,77.085,11.683Z" transform="translate(-36.167 -6.039)"/>
      <path id="Path_21" data-name="Path 21" class="cls-2" d="M83.333,14.635H82.148l-.1-.679h-.037a2.038,2.038,0,0,1-1.734.813,1.8,1.8,0,0,1-1.355-.534,1.667,1.667,0,0,1-.465-1.2,1.828,1.828,0,0,1,.91-1.649,4.754,4.754,0,0,1,2.56-.557v-.11q0-1.164-1.233-1.164a2.776,2.776,0,0,0-1.548.436l-.268-.86a3.829,3.829,0,0,1,2.036-.509q2.327,0,2.33,2.437v2.17A9.138,9.138,0,0,0,83.333,14.635Zm-1.37-2.025V11.7q-2.184-.038-2.184,1.188a.884.884,0,0,0,.253.691.927.927,0,0,0,.645.23,1.339,1.339,0,0,0,.807-.273,1.115,1.115,0,0,0,.457-.7A1.1,1.1,0,0,0,81.963,12.611Z" transform="translate(-34.658 -6.039)"/>
      <path id="Path_22" data-name="Path 22" class="cls-2" d="M89.452,15.152H88.281l-.062-.946h-.037a1.976,1.976,0,0,1-1.907,1.08,2.241,2.241,0,0,1-1.783-.836,3.242,3.242,0,0,1-.708-2.17,3.4,3.4,0,0,1,.769-2.316,2.373,2.373,0,0,1,1.832-.825,1.783,1.783,0,0,1,1.672.8h.025V6.556h1.321v7.009Q89.405,14.425,89.452,15.152Zm-1.368-2.485v-.983a1.915,1.915,0,0,0-.037-.412,1.49,1.49,0,0,0-.477-.794,1.3,1.3,0,0,0-.883-.321,1.357,1.357,0,0,0-1.161.582,2.483,2.483,0,0,0-.423,1.491,2.315,2.315,0,0,0,.405,1.419,1.362,1.362,0,0,0,1.153.581,1.275,1.275,0,0,0,1.043-.485A1.607,1.607,0,0,0,88.084,12.667Z" transform="translate(-33.277 -6.556)"/>
      <path id="Path_23" data-name="Path 23" class="cls-2" d="M98.445,11.641a3.218,3.218,0,0,1-.782,2.231,2.8,2.8,0,0,1-2.175.9,2.666,2.666,0,0,1-2.083-.861,3.123,3.123,0,0,1-.774-2.17,3.187,3.187,0,0,1,.8-2.243,2.785,2.785,0,0,1,2.157-.873,2.722,2.722,0,0,1,2.1.86A3.1,3.1,0,0,1,98.445,11.641Zm-1.368.043a2.65,2.65,0,0,0-.354-1.4,1.307,1.307,0,0,0-1.185-.705,1.328,1.328,0,0,0-1.21.705,2.685,2.685,0,0,0-.354,1.422,2.65,2.65,0,0,0,.354,1.4,1.333,1.333,0,0,0,1.2.7,1.32,1.32,0,0,0,1.185-.717A2.644,2.644,0,0,0,97.077,11.683Z" transform="translate(-30.984 -6.039)"/>
      <path id="Path_24" data-name="Path 24" class="cls-2" d="M103.954,14.636h-1.318V11.261q0-1.56-1.2-1.56a1.19,1.19,0,0,0-.952.429,1.508,1.508,0,0,0-.366,1.01v3.495H98.8V10.427q0-.776-.047-1.686h1.159l.062.921h.037a1.918,1.918,0,0,1,.684-.711,2.247,2.247,0,0,1,1.2-.331,1.9,1.9,0,0,1,1.38.534,2.577,2.577,0,0,1,.684,1.953Z" transform="translate(-29.397 -6.04)"/>
      <path id="Path_25" data-name="Path 25" class="cls-2" d="M110.68,9.994h-1.453v2.862c0,.727.258,1.091.769,1.091a2.341,2.341,0,0,0,.588-.061l.034.994a2.985,2.985,0,0,1-1.025.146,1.584,1.584,0,0,1-1.22-.472,2.3,2.3,0,0,1-.441-1.589V9.994h-.868V9.012h.868V7.933l1.293-.387V9.011h1.453v.983Z" transform="translate(-27.242 -6.309)"/>
      <path id="Path_26" data-name="Path 26" class="cls-2" d="M116.545,15.152h-1.321V11.8q0-1.584-1.2-1.585a1.259,1.259,0,0,0-1.259.919,1.635,1.635,0,0,0-.062.471v3.544H111.39V6.556h1.318v3.551h.025a2,2,0,0,1,1.783-.969,1.846,1.846,0,0,1,1.357.534,2.672,2.672,0,0,1,.671,1.976v3.5Z" transform="translate(-26.121 -6.556)"/>
      <path id="Path_27" data-name="Path 27" class="cls-2" d="M122.294,11.413a3.141,3.141,0,0,1-.049.594h-3.958a1.712,1.712,0,0,0,.573,1.334,1.976,1.976,0,0,0,1.3.412,4.4,4.4,0,0,0,1.6-.279l.207.91a5,5,0,0,1-1.992.364,2.889,2.889,0,0,1-2.167-.806,2.958,2.958,0,0,1-.787-2.164,3.356,3.356,0,0,1,.733-2.219,2.531,2.531,0,0,1,2.075-.945,2.213,2.213,0,0,1,1.941.945A3.129,3.129,0,0,1,122.294,11.413Zm-1.259-.339a1.754,1.754,0,0,0-.256-1.006,1.155,1.155,0,0,0-1.05-.546,1.256,1.256,0,0,0-1.05.534,1.975,1.975,0,0,0-.392,1.019Z" transform="translate(-24.662 -6.041)"/>
    </g>
  </g>
</svg>
